<mxfile host="app.diagrams.net" modified="2021-06-15T07:30:37.070Z" agent="5.0 (Windows)" etag="94ebnzPI8k0EG7Py57Th" version="14.7.8" type="github" pages="3">
  <diagram id="Ud-Ueznv3Q85ipjBKGA-" name="Page-1">
    <mxGraphModel dx="1038" dy="509" grid="1" gridSize="10" guides="1" tooltips="1" connect="1" arrows="1" fold="1" page="1" pageScale="1" pageWidth="850" pageHeight="1100" math="0" shadow="0">
      <root>
        <mxCell id="0" />
        <mxCell id="1" parent="0" />
        <mxCell id="0wDrGrHpsCFJDMRe6zhL-1" value="&lt;div&gt;Client&lt;/div&gt;" style="html=1;" parent="1" vertex="1">
          <mxGeometry x="340" y="80" width="110" height="50" as="geometry" />
        </mxCell>
        <mxCell id="0wDrGrHpsCFJDMRe6zhL-6" value="interface&#xa;ItemIterator" style="swimlane;fontStyle=0;childLayout=stackLayout;horizontal=1;startSize=40;fillColor=none;horizontalStack=0;resizeParent=1;resizeParentMax=0;resizeLast=0;collapsible=1;marginBottom=0;" parent="1" vertex="1">
          <mxGeometry x="560" y="200" width="140" height="92" as="geometry" />
        </mxCell>
        <mxCell id="0wDrGrHpsCFJDMRe6zhL-7" value="+ hasNext(): boolean" style="text;strokeColor=none;fillColor=none;align=left;verticalAlign=top;spacingLeft=4;spacingRight=4;overflow=hidden;rotatable=0;points=[[0,0.5],[1,0.5]];portConstraint=eastwest;" parent="0wDrGrHpsCFJDMRe6zhL-6" vertex="1">
          <mxGeometry y="40" width="140" height="26" as="geometry" />
        </mxCell>
        <mxCell id="0wDrGrHpsCFJDMRe6zhL-9" value="+ next(): T" style="text;strokeColor=none;fillColor=none;align=left;verticalAlign=top;spacingLeft=4;spacingRight=4;overflow=hidden;rotatable=0;points=[[0,0.5],[1,0.5]];portConstraint=eastwest;" parent="0wDrGrHpsCFJDMRe6zhL-6" vertex="1">
          <mxGeometry y="66" width="140" height="26" as="geometry" />
        </mxCell>
        <mxCell id="0wDrGrHpsCFJDMRe6zhL-10" value="MenuItemIterator&lt;Item&gt;" style="swimlane;fontStyle=0;childLayout=stackLayout;horizontal=1;startSize=40;fillColor=none;horizontalStack=0;resizeParent=1;resizeParentMax=0;resizeLast=0;collapsible=1;marginBottom=0;" parent="1" vertex="1">
          <mxGeometry x="560" y="360" width="140" height="92" as="geometry" />
        </mxCell>
        <mxCell id="0wDrGrHpsCFJDMRe6zhL-11" value="+ hasNext(): boolean" style="text;strokeColor=none;fillColor=none;align=left;verticalAlign=top;spacingLeft=4;spacingRight=4;overflow=hidden;rotatable=0;points=[[0,0.5],[1,0.5]];portConstraint=eastwest;" parent="0wDrGrHpsCFJDMRe6zhL-10" vertex="1">
          <mxGeometry y="40" width="140" height="26" as="geometry" />
        </mxCell>
        <mxCell id="0wDrGrHpsCFJDMRe6zhL-12" value="+ next(): T" style="text;strokeColor=none;fillColor=none;align=left;verticalAlign=top;spacingLeft=4;spacingRight=4;overflow=hidden;rotatable=0;points=[[0,0.5],[1,0.5]];portConstraint=eastwest;" parent="0wDrGrHpsCFJDMRe6zhL-10" vertex="1">
          <mxGeometry y="66" width="140" height="26" as="geometry" />
        </mxCell>
        <mxCell id="0wDrGrHpsCFJDMRe6zhL-13" value="interface&#xa;Iterable Collection" style="swimlane;fontStyle=0;childLayout=stackLayout;horizontal=1;startSize=40;fillColor=none;horizontalStack=0;resizeParent=1;resizeParentMax=0;resizeLast=0;collapsible=1;marginBottom=0;" parent="1" vertex="1">
          <mxGeometry x="110" y="200" width="170" height="92" as="geometry" />
        </mxCell>
        <mxCell id="0wDrGrHpsCFJDMRe6zhL-14" value="+ addItem(T ): void" style="text;strokeColor=none;fillColor=none;align=left;verticalAlign=top;spacingLeft=4;spacingRight=4;overflow=hidden;rotatable=0;points=[[0,0.5],[1,0.5]];portConstraint=eastwest;" parent="0wDrGrHpsCFJDMRe6zhL-13" vertex="1">
          <mxGeometry y="40" width="170" height="26" as="geometry" />
        </mxCell>
        <mxCell id="0wDrGrHpsCFJDMRe6zhL-15" value="+ ItemIterator&lt;T&gt; iterator()" style="text;strokeColor=none;fillColor=none;align=left;verticalAlign=top;spacingLeft=4;spacingRight=4;overflow=hidden;rotatable=0;points=[[0,0.5],[1,0.5]];portConstraint=eastwest;" parent="0wDrGrHpsCFJDMRe6zhL-13" vertex="1">
          <mxGeometry y="66" width="170" height="26" as="geometry" />
        </mxCell>
        <mxCell id="0wDrGrHpsCFJDMRe6zhL-20" value="Menu Collection" style="swimlane;fontStyle=0;childLayout=stackLayout;horizontal=1;startSize=40;fillColor=none;horizontalStack=0;resizeParent=1;resizeParentMax=0;resizeLast=0;collapsible=1;marginBottom=0;" parent="1" vertex="1">
          <mxGeometry x="125" y="360" width="155" height="92" as="geometry" />
        </mxCell>
        <mxCell id="0wDrGrHpsCFJDMRe6zhL-21" value="+ addItem(T ): void" style="text;strokeColor=none;fillColor=none;align=left;verticalAlign=top;spacingLeft=4;spacingRight=4;overflow=hidden;rotatable=0;points=[[0,0.5],[1,0.5]];portConstraint=eastwest;" parent="0wDrGrHpsCFJDMRe6zhL-20" vertex="1">
          <mxGeometry y="40" width="155" height="26" as="geometry" />
        </mxCell>
        <mxCell id="0wDrGrHpsCFJDMRe6zhL-22" value="+ ItemIterator&lt;T&gt; iterator()" style="text;strokeColor=none;fillColor=none;align=left;verticalAlign=top;spacingLeft=4;spacingRight=4;overflow=hidden;rotatable=0;points=[[0,0.5],[1,0.5]];portConstraint=eastwest;" parent="0wDrGrHpsCFJDMRe6zhL-20" vertex="1">
          <mxGeometry y="66" width="155" height="26" as="geometry" />
        </mxCell>
        <mxCell id="0wDrGrHpsCFJDMRe6zhL-33" value="" style="endArrow=block;endSize=16;endFill=0;html=1;exitX=1;exitY=0.5;exitDx=0;exitDy=0;entryX=0.5;entryY=0;entryDx=0;entryDy=0;" parent="1" source="0wDrGrHpsCFJDMRe6zhL-1" target="0wDrGrHpsCFJDMRe6zhL-6" edge="1">
          <mxGeometry width="160" relative="1" as="geometry">
            <mxPoint x="470" y="110" as="sourcePoint" />
            <mxPoint x="630" y="110" as="targetPoint" />
            <Array as="points">
              <mxPoint x="630" y="105" />
            </Array>
          </mxGeometry>
        </mxCell>
        <mxCell id="0wDrGrHpsCFJDMRe6zhL-34" value="" style="endArrow=block;endSize=16;endFill=0;html=1;exitX=0;exitY=0.5;exitDx=0;exitDy=0;entryX=0.5;entryY=0;entryDx=0;entryDy=0;" parent="1" source="0wDrGrHpsCFJDMRe6zhL-1" target="0wDrGrHpsCFJDMRe6zhL-13" edge="1">
          <mxGeometry width="160" relative="1" as="geometry">
            <mxPoint x="125" y="80" as="sourcePoint" />
            <mxPoint x="305" y="175" as="targetPoint" />
            <Array as="points">
              <mxPoint x="195" y="105" />
            </Array>
          </mxGeometry>
        </mxCell>
        <mxCell id="0wDrGrHpsCFJDMRe6zhL-35" value="" style="endArrow=block;dashed=1;endFill=0;endSize=12;html=1;entryX=0.5;entryY=1.077;entryDx=0;entryDy=0;entryPerimeter=0;exitX=0.5;exitY=0;exitDx=0;exitDy=0;" parent="1" source="0wDrGrHpsCFJDMRe6zhL-10" target="0wDrGrHpsCFJDMRe6zhL-9" edge="1">
          <mxGeometry width="160" relative="1" as="geometry">
            <mxPoint x="410" y="290" as="sourcePoint" />
            <mxPoint x="570" y="290" as="targetPoint" />
          </mxGeometry>
        </mxCell>
        <mxCell id="0wDrGrHpsCFJDMRe6zhL-36" value="" style="endArrow=block;dashed=1;endFill=0;endSize=12;html=1;entryX=0.618;entryY=1.077;entryDx=0;entryDy=0;entryPerimeter=0;exitX=0.5;exitY=0;exitDx=0;exitDy=0;" parent="1" source="0wDrGrHpsCFJDMRe6zhL-20" target="0wDrGrHpsCFJDMRe6zhL-15" edge="1">
          <mxGeometry width="160" relative="1" as="geometry">
            <mxPoint x="300" y="358" as="sourcePoint" />
            <mxPoint x="300" y="292.00199999999995" as="targetPoint" />
          </mxGeometry>
        </mxCell>
        <mxCell id="0wDrGrHpsCFJDMRe6zhL-37" value="" style="endArrow=block;endSize=16;endFill=0;html=1;exitX=1;exitY=0.5;exitDx=0;exitDy=0;" parent="1" source="0wDrGrHpsCFJDMRe6zhL-20" target="0wDrGrHpsCFJDMRe6zhL-11" edge="1">
          <mxGeometry width="160" relative="1" as="geometry">
            <mxPoint x="485" y="390" as="sourcePoint" />
            <mxPoint x="340" y="485" as="targetPoint" />
            <Array as="points" />
          </mxGeometry>
        </mxCell>
      </root>
    </mxGraphModel>
  </diagram>
  <diagram id="lzLHa6sSSpr7k-1-nbn0" name="Page-2">
    <mxGraphModel dx="1221" dy="599" grid="1" gridSize="10" guides="1" tooltips="1" connect="1" arrows="1" fold="1" page="1" pageScale="1" pageWidth="850" pageHeight="1100" math="0" shadow="0">
      <root>
        <mxCell id="5-rYdQBf_HucA-UvVxtL-0" />
        <mxCell id="5-rYdQBf_HucA-UvVxtL-1" parent="5-rYdQBf_HucA-UvVxtL-0" />
        <mxCell id="KNPKLaqdpDVEEtvQc42Q-0" value="&lt;div&gt;Client&lt;/div&gt;" style="html=1;" vertex="1" parent="5-rYdQBf_HucA-UvVxtL-1">
          <mxGeometry x="340" y="80" width="110" height="50" as="geometry" />
        </mxCell>
        <mxCell id="KNPKLaqdpDVEEtvQc42Q-1" value="interface&#xa;Iterator" style="swimlane;fontStyle=0;childLayout=stackLayout;horizontal=1;startSize=40;fillColor=none;horizontalStack=0;resizeParent=1;resizeParentMax=0;resizeLast=0;collapsible=1;marginBottom=0;" vertex="1" parent="5-rYdQBf_HucA-UvVxtL-1">
          <mxGeometry x="560" y="200" width="140" height="92" as="geometry" />
        </mxCell>
        <mxCell id="KNPKLaqdpDVEEtvQc42Q-2" value="+ getNext()" style="text;strokeColor=none;fillColor=none;align=left;verticalAlign=top;spacingLeft=4;spacingRight=4;overflow=hidden;rotatable=0;points=[[0,0.5],[1,0.5]];portConstraint=eastwest;" vertex="1" parent="KNPKLaqdpDVEEtvQc42Q-1">
          <mxGeometry y="40" width="140" height="26" as="geometry" />
        </mxCell>
        <mxCell id="KNPKLaqdpDVEEtvQc42Q-3" value="+ hasMore()" style="text;strokeColor=none;fillColor=none;align=left;verticalAlign=top;spacingLeft=4;spacingRight=4;overflow=hidden;rotatable=0;points=[[0,0.5],[1,0.5]];portConstraint=eastwest;" vertex="1" parent="KNPKLaqdpDVEEtvQc42Q-1">
          <mxGeometry y="66" width="140" height="26" as="geometry" />
        </mxCell>
        <mxCell id="KNPKLaqdpDVEEtvQc42Q-4" value="Concrete Iterators " style="swimlane;fontStyle=0;childLayout=stackLayout;horizontal=1;startSize=40;fillColor=none;horizontalStack=0;resizeParent=1;resizeParentMax=0;resizeLast=0;collapsible=1;marginBottom=0;" vertex="1" parent="5-rYdQBf_HucA-UvVxtL-1">
          <mxGeometry x="560" y="360" width="270" height="170" as="geometry" />
        </mxCell>
        <mxCell id="KNPKLaqdpDVEEtvQc42Q-5" value="- collections: ConcreteCollections" style="text;strokeColor=none;fillColor=none;align=left;verticalAlign=top;spacingLeft=4;spacingRight=4;overflow=hidden;rotatable=0;points=[[0,0.5],[1,0.5]];portConstraint=eastwest;" vertex="1" parent="KNPKLaqdpDVEEtvQc42Q-4">
          <mxGeometry y="40" width="270" height="26" as="geometry" />
        </mxCell>
        <mxCell id="KNPKLaqdpDVEEtvQc42Q-6" value="- iterationState" style="text;strokeColor=none;fillColor=none;align=left;verticalAlign=top;spacingLeft=4;spacingRight=4;overflow=hidden;rotatable=0;points=[[0,0.5],[1,0.5]];portConstraint=eastwest;" vertex="1" parent="KNPKLaqdpDVEEtvQc42Q-4">
          <mxGeometry y="66" width="270" height="26" as="geometry" />
        </mxCell>
        <mxCell id="KNPKLaqdpDVEEtvQc42Q-18" value="+ ConcreteIterator( c : ConcreteCollections )" style="text;strokeColor=none;fillColor=none;align=left;verticalAlign=top;spacingLeft=4;spacingRight=4;overflow=hidden;rotatable=0;points=[[0,0.5],[1,0.5]];portConstraint=eastwest;" vertex="1" parent="KNPKLaqdpDVEEtvQc42Q-4">
          <mxGeometry y="92" width="270" height="26" as="geometry" />
        </mxCell>
        <mxCell id="KNPKLaqdpDVEEtvQc42Q-23" value="+ getNext()" style="text;strokeColor=none;fillColor=none;align=left;verticalAlign=top;spacingLeft=4;spacingRight=4;overflow=hidden;rotatable=0;points=[[0,0.5],[1,0.5]];portConstraint=eastwest;" vertex="1" parent="KNPKLaqdpDVEEtvQc42Q-4">
          <mxGeometry y="118" width="270" height="26" as="geometry" />
        </mxCell>
        <mxCell id="KNPKLaqdpDVEEtvQc42Q-24" value="+ getNext()" style="text;strokeColor=none;fillColor=none;align=left;verticalAlign=top;spacingLeft=4;spacingRight=4;overflow=hidden;rotatable=0;points=[[0,0.5],[1,0.5]];portConstraint=eastwest;" vertex="1" parent="KNPKLaqdpDVEEtvQc42Q-4">
          <mxGeometry y="144" width="270" height="26" as="geometry" />
        </mxCell>
        <mxCell id="KNPKLaqdpDVEEtvQc42Q-7" value="interface&#xa;Iterable Collection" style="swimlane;fontStyle=0;childLayout=stackLayout;horizontal=1;startSize=40;fillColor=none;horizontalStack=0;resizeParent=1;resizeParentMax=0;resizeLast=0;collapsible=1;marginBottom=0;" vertex="1" parent="5-rYdQBf_HucA-UvVxtL-1">
          <mxGeometry x="110" y="200" width="170" height="66" as="geometry" />
        </mxCell>
        <mxCell id="KNPKLaqdpDVEEtvQc42Q-9" value="+ CreateIterator(): Iterator" style="text;strokeColor=none;fillColor=none;align=left;verticalAlign=top;spacingLeft=4;spacingRight=4;overflow=hidden;rotatable=0;points=[[0,0.5],[1,0.5]];portConstraint=eastwest;" vertex="1" parent="KNPKLaqdpDVEEtvQc42Q-7">
          <mxGeometry y="40" width="170" height="26" as="geometry" />
        </mxCell>
        <mxCell id="KNPKLaqdpDVEEtvQc42Q-10" value="Concrete Collections" style="swimlane;fontStyle=0;childLayout=stackLayout;horizontal=1;startSize=40;fillColor=none;horizontalStack=0;resizeParent=1;resizeParentMax=0;resizeLast=0;collapsible=1;marginBottom=0;" vertex="1" parent="5-rYdQBf_HucA-UvVxtL-1">
          <mxGeometry x="125" y="360" width="155" height="92" as="geometry" />
        </mxCell>
        <mxCell id="KNPKLaqdpDVEEtvQc42Q-11" value=".." style="text;strokeColor=none;fillColor=none;align=left;verticalAlign=top;spacingLeft=4;spacingRight=4;overflow=hidden;rotatable=0;points=[[0,0.5],[1,0.5]];portConstraint=eastwest;" vertex="1" parent="KNPKLaqdpDVEEtvQc42Q-10">
          <mxGeometry y="40" width="155" height="26" as="geometry" />
        </mxCell>
        <mxCell id="KNPKLaqdpDVEEtvQc42Q-12" value="+ CreateIterator(): Iterator" style="text;strokeColor=none;fillColor=none;align=left;verticalAlign=top;spacingLeft=4;spacingRight=4;overflow=hidden;rotatable=0;points=[[0,0.5],[1,0.5]];portConstraint=eastwest;" vertex="1" parent="KNPKLaqdpDVEEtvQc42Q-10">
          <mxGeometry y="66" width="155" height="26" as="geometry" />
        </mxCell>
        <mxCell id="KNPKLaqdpDVEEtvQc42Q-13" value="" style="endArrow=block;endSize=16;endFill=0;html=1;exitX=1;exitY=0.5;exitDx=0;exitDy=0;entryX=0.5;entryY=0;entryDx=0;entryDy=0;" edge="1" parent="5-rYdQBf_HucA-UvVxtL-1" source="KNPKLaqdpDVEEtvQc42Q-0" target="KNPKLaqdpDVEEtvQc42Q-1">
          <mxGeometry width="160" relative="1" as="geometry">
            <mxPoint x="470" y="110" as="sourcePoint" />
            <mxPoint x="630" y="110" as="targetPoint" />
            <Array as="points">
              <mxPoint x="630" y="105" />
            </Array>
          </mxGeometry>
        </mxCell>
        <mxCell id="KNPKLaqdpDVEEtvQc42Q-14" value="" style="endArrow=block;endSize=16;endFill=0;html=1;exitX=0;exitY=0.5;exitDx=0;exitDy=0;entryX=0.5;entryY=0;entryDx=0;entryDy=0;" edge="1" parent="5-rYdQBf_HucA-UvVxtL-1" source="KNPKLaqdpDVEEtvQc42Q-0" target="KNPKLaqdpDVEEtvQc42Q-7">
          <mxGeometry width="160" relative="1" as="geometry">
            <mxPoint x="125" y="80" as="sourcePoint" />
            <mxPoint x="305" y="175" as="targetPoint" />
            <Array as="points">
              <mxPoint x="195" y="105" />
            </Array>
          </mxGeometry>
        </mxCell>
        <mxCell id="KNPKLaqdpDVEEtvQc42Q-15" value="" style="endArrow=block;dashed=1;endFill=0;endSize=12;html=1;entryX=0.5;entryY=1.077;entryDx=0;entryDy=0;entryPerimeter=0;exitX=0.5;exitY=0;exitDx=0;exitDy=0;" edge="1" parent="5-rYdQBf_HucA-UvVxtL-1" source="KNPKLaqdpDVEEtvQc42Q-4" target="KNPKLaqdpDVEEtvQc42Q-3">
          <mxGeometry width="160" relative="1" as="geometry">
            <mxPoint x="410" y="290" as="sourcePoint" />
            <mxPoint x="570" y="290" as="targetPoint" />
          </mxGeometry>
        </mxCell>
        <mxCell id="KNPKLaqdpDVEEtvQc42Q-16" value="" style="endArrow=block;dashed=1;endFill=0;endSize=12;html=1;entryX=0.618;entryY=1.077;entryDx=0;entryDy=0;entryPerimeter=0;exitX=0.5;exitY=0;exitDx=0;exitDy=0;" edge="1" parent="5-rYdQBf_HucA-UvVxtL-1" source="KNPKLaqdpDVEEtvQc42Q-10" target="KNPKLaqdpDVEEtvQc42Q-9">
          <mxGeometry width="160" relative="1" as="geometry">
            <mxPoint x="300" y="358" as="sourcePoint" />
            <mxPoint x="300" y="292.00199999999995" as="targetPoint" />
          </mxGeometry>
        </mxCell>
        <mxCell id="KNPKLaqdpDVEEtvQc42Q-17" value="" style="endArrow=block;endSize=16;endFill=0;html=1;exitX=1;exitY=0.5;exitDx=0;exitDy=0;" edge="1" parent="5-rYdQBf_HucA-UvVxtL-1" source="KNPKLaqdpDVEEtvQc42Q-10" target="KNPKLaqdpDVEEtvQc42Q-5">
          <mxGeometry width="160" relative="1" as="geometry">
            <mxPoint x="485" y="390" as="sourcePoint" />
            <mxPoint x="340" y="485" as="targetPoint" />
            <Array as="points" />
          </mxGeometry>
        </mxCell>
      </root>
    </mxGraphModel>
  </diagram>
  <diagram id="QqAuTZPeBB7ZP8BULV-F" name="Page-3">
    <mxGraphModel dx="1038" dy="509" grid="1" gridSize="10" guides="1" tooltips="1" connect="1" arrows="1" fold="1" page="1" pageScale="1" pageWidth="850" pageHeight="1100" math="0" shadow="0">
      <root>
        <mxCell id="IQu-d-vdxmC6yx66NMcz-0" />
        <mxCell id="IQu-d-vdxmC6yx66NMcz-1" parent="IQu-d-vdxmC6yx66NMcz-0" />
        <mxCell id="ofyAgiU1LyrE0PN7XUVz-0" value="TreeCollection" style="swimlane;fontStyle=1;align=center;verticalAlign=top;childLayout=stackLayout;horizontal=1;startSize=26;horizontalStack=0;resizeParent=1;resizeParentMax=0;resizeLast=0;collapsible=1;marginBottom=0;" vertex="1" parent="IQu-d-vdxmC6yx66NMcz-1">
          <mxGeometry x="345" y="70" width="160" height="112" as="geometry" />
        </mxCell>
        <mxCell id="ofyAgiU1LyrE0PN7XUVz-1" value="...&#xa;" style="text;strokeColor=none;fillColor=none;align=left;verticalAlign=top;spacingLeft=4;spacingRight=4;overflow=hidden;rotatable=0;points=[[0,0.5],[1,0.5]];portConstraint=eastwest;" vertex="1" parent="ofyAgiU1LyrE0PN7XUVz-0">
          <mxGeometry y="26" width="160" height="26" as="geometry" />
        </mxCell>
        <mxCell id="ofyAgiU1LyrE0PN7XUVz-2" value="" style="line;strokeWidth=1;fillColor=none;align=left;verticalAlign=middle;spacingTop=-1;spacingLeft=3;spacingRight=3;rotatable=0;labelPosition=right;points=[];portConstraint=eastwest;" vertex="1" parent="ofyAgiU1LyrE0PN7XUVz-0">
          <mxGeometry y="52" width="160" height="8" as="geometry" />
        </mxCell>
        <mxCell id="ofyAgiU1LyrE0PN7XUVz-3" value="+ getDepthIterator()" style="text;strokeColor=none;fillColor=none;align=left;verticalAlign=top;spacingLeft=4;spacingRight=4;overflow=hidden;rotatable=0;points=[[0,0.5],[1,0.5]];portConstraint=eastwest;" vertex="1" parent="ofyAgiU1LyrE0PN7XUVz-0">
          <mxGeometry y="60" width="160" height="26" as="geometry" />
        </mxCell>
        <mxCell id="ofyAgiU1LyrE0PN7XUVz-4" value="+ getBreadthIterator()" style="text;strokeColor=none;fillColor=none;align=left;verticalAlign=top;spacingLeft=4;spacingRight=4;overflow=hidden;rotatable=0;points=[[0,0.5],[1,0.5]];portConstraint=eastwest;" vertex="1" parent="ofyAgiU1LyrE0PN7XUVz-0">
          <mxGeometry y="86" width="160" height="26" as="geometry" />
        </mxCell>
        <mxCell id="ofyAgiU1LyrE0PN7XUVz-5" value="Depth-first Iterator" style="swimlane;fontStyle=1;align=center;verticalAlign=top;childLayout=stackLayout;horizontal=1;startSize=26;horizontalStack=0;resizeParent=1;resizeParentMax=0;resizeLast=0;collapsible=1;marginBottom=0;" vertex="1" parent="IQu-d-vdxmC6yx66NMcz-1">
          <mxGeometry x="140" y="240" width="160" height="112" as="geometry" />
        </mxCell>
        <mxCell id="ofyAgiU1LyrE0PN7XUVz-6" value="- currentElement" style="text;strokeColor=none;fillColor=none;align=left;verticalAlign=top;spacingLeft=4;spacingRight=4;overflow=hidden;rotatable=0;points=[[0,0.5],[1,0.5]];portConstraint=eastwest;" vertex="1" parent="ofyAgiU1LyrE0PN7XUVz-5">
          <mxGeometry y="26" width="160" height="26" as="geometry" />
        </mxCell>
        <mxCell id="ofyAgiU1LyrE0PN7XUVz-7" value="" style="line;strokeWidth=1;fillColor=none;align=left;verticalAlign=middle;spacingTop=-1;spacingLeft=3;spacingRight=3;rotatable=0;labelPosition=right;points=[];portConstraint=eastwest;" vertex="1" parent="ofyAgiU1LyrE0PN7XUVz-5">
          <mxGeometry y="52" width="160" height="8" as="geometry" />
        </mxCell>
        <mxCell id="ofyAgiU1LyrE0PN7XUVz-8" value="+ getNext() : Element" style="text;strokeColor=none;fillColor=none;align=left;verticalAlign=top;spacingLeft=4;spacingRight=4;overflow=hidden;rotatable=0;points=[[0,0.5],[1,0.5]];portConstraint=eastwest;" vertex="1" parent="ofyAgiU1LyrE0PN7XUVz-5">
          <mxGeometry y="60" width="160" height="26" as="geometry" />
        </mxCell>
        <mxCell id="ofyAgiU1LyrE0PN7XUVz-9" value="+ hasMore() : bool&#xa;" style="text;strokeColor=none;fillColor=none;align=left;verticalAlign=top;spacingLeft=4;spacingRight=4;overflow=hidden;rotatable=0;points=[[0,0.5],[1,0.5]];portConstraint=eastwest;" vertex="1" parent="ofyAgiU1LyrE0PN7XUVz-5">
          <mxGeometry y="86" width="160" height="26" as="geometry" />
        </mxCell>
        <mxCell id="ofyAgiU1LyrE0PN7XUVz-10" value="Breadth-first Iterator   " style="swimlane;fontStyle=1;align=center;verticalAlign=top;childLayout=stackLayout;horizontal=1;startSize=26;horizontalStack=0;resizeParent=1;resizeParentMax=0;resizeLast=0;collapsible=1;marginBottom=0;" vertex="1" parent="IQu-d-vdxmC6yx66NMcz-1">
          <mxGeometry x="600" y="240" width="160" height="112" as="geometry" />
        </mxCell>
        <mxCell id="ofyAgiU1LyrE0PN7XUVz-11" value="- currentElement" style="text;strokeColor=none;fillColor=none;align=left;verticalAlign=top;spacingLeft=4;spacingRight=4;overflow=hidden;rotatable=0;points=[[0,0.5],[1,0.5]];portConstraint=eastwest;" vertex="1" parent="ofyAgiU1LyrE0PN7XUVz-10">
          <mxGeometry y="26" width="160" height="26" as="geometry" />
        </mxCell>
        <mxCell id="ofyAgiU1LyrE0PN7XUVz-12" value="" style="line;strokeWidth=1;fillColor=none;align=left;verticalAlign=middle;spacingTop=-1;spacingLeft=3;spacingRight=3;rotatable=0;labelPosition=right;points=[];portConstraint=eastwest;" vertex="1" parent="ofyAgiU1LyrE0PN7XUVz-10">
          <mxGeometry y="52" width="160" height="8" as="geometry" />
        </mxCell>
        <mxCell id="ofyAgiU1LyrE0PN7XUVz-13" value="+ getNext() : Element" style="text;strokeColor=none;fillColor=none;align=left;verticalAlign=top;spacingLeft=4;spacingRight=4;overflow=hidden;rotatable=0;points=[[0,0.5],[1,0.5]];portConstraint=eastwest;" vertex="1" parent="ofyAgiU1LyrE0PN7XUVz-10">
          <mxGeometry y="60" width="160" height="26" as="geometry" />
        </mxCell>
        <mxCell id="ofyAgiU1LyrE0PN7XUVz-14" value="+ hasMore() : bool" style="text;strokeColor=none;fillColor=none;align=left;verticalAlign=top;spacingLeft=4;spacingRight=4;overflow=hidden;rotatable=0;points=[[0,0.5],[1,0.5]];portConstraint=eastwest;" vertex="1" parent="ofyAgiU1LyrE0PN7XUVz-10">
          <mxGeometry y="86" width="160" height="26" as="geometry" />
        </mxCell>
        <mxCell id="ofyAgiU1LyrE0PN7XUVz-20" value="" style="html=1;verticalAlign=bottom;endArrow=block;exitX=0;exitY=0.5;exitDx=0;exitDy=0;" edge="1" parent="IQu-d-vdxmC6yx66NMcz-1" source="ofyAgiU1LyrE0PN7XUVz-4">
          <mxGeometry width="80" relative="1" as="geometry">
            <mxPoint x="360" y="200" as="sourcePoint" />
            <mxPoint x="260" y="240" as="targetPoint" />
          </mxGeometry>
        </mxCell>
        <mxCell id="ofyAgiU1LyrE0PN7XUVz-21" value="" style="html=1;verticalAlign=bottom;endArrow=block;exitX=1;exitY=0.5;exitDx=0;exitDy=0;entryX=0.25;entryY=0;entryDx=0;entryDy=0;" edge="1" parent="IQu-d-vdxmC6yx66NMcz-1" source="ofyAgiU1LyrE0PN7XUVz-4" target="ofyAgiU1LyrE0PN7XUVz-10">
          <mxGeometry width="80" relative="1" as="geometry">
            <mxPoint x="355" y="179" as="sourcePoint" />
            <mxPoint x="270" y="250" as="targetPoint" />
          </mxGeometry>
        </mxCell>
      </root>
    </mxGraphModel>
  </diagram>
</mxfile>
